<?xml version="1.0" encoding="utf-8" ?>
<svg baseProfile="full" height="100%" preserveAspectRatio="xMidYMid meet" version="1.1" viewBox="-4.840784273342409,-3.057743093262782,10.725194387711593,6.53450912529201" width="100%" xmlns="http://www.w3.org/2000/svg" xmlns:ev="http://www.w3.org/2001/xml-events" xmlns:xlink="http://www.w3.org/1999/xlink"><defs /><line stroke="#000000" stroke-width="0.1" x1="-0.8655034221411881" x2="-2.307772056874473" y1="-1.437903387303566" y2="-1.8500455778938862" /><line stroke="#000000" stroke-width="0.1" x1="-0.9754080062986068" x2="-2.4176766410318917" y1="-1.053298418041357" y2="-1.4654406086316771" /><line stroke="#000000" stroke-width="0.1" x1="-2.3627243489531824" x2="-3.44078427334241" y1="-1.6577430932627817" y2="-0.6147729117974181" /><line stroke="#000000" stroke-width="0.1" x1="-3.6347992562831677" x2="-3.2705905459391107" y1="-0.5662117504182105" y2="0.8889006216374731" /><line stroke="#000000" stroke-width="0.1" x1="-3.246769290401652" x2="-2.882560580057595" y1="-0.6633340731766257" y2="0.7917782988790578" /><line stroke="#000000" stroke-width="0.1" x1="-3.076575562998353" x2="-1.6343069282650682" y1="0.8403394602582654" y2="1.2524816508485854" /><line stroke="#000000" stroke-width="0.1" x1="-1.4952442374030197" x2="-0.41718431301379233" y1="1.3962229741004824" y2="0.3532527926351192" /><line stroke="#000000" stroke-width="0.1" x1="-1.7733696191271167" x2="-0.6953096947378893" y1="1.1087403275966885" y2="0.06577014613132517" /><line stroke="#000000" stroke-width="0.1" x1="-0.5562470038758408" x2="0.8860216308574433" y1="0.20951146938322218" y2="0.6216536599735427" /><line stroke="#000000" stroke-width="0.1" x1="0.6920066479166854" x2="1.056215358260742" y1="0.6702148213527502" y2="2.125327193408435" /><line stroke="#000000" stroke-width="0.1" x1="1.0800366137982012" x2="1.4442453241422577" y1="0.5730924985943352" y2="2.0282048706500198" /><line stroke="#000000" stroke-width="0.1" x1="0.8860216308574433" x2="1.9640815552466706" y1="0.6216536599735427" y2="-0.42131652149182064" /><line stroke="#000000" stroke-width="0.1" x1="1.9091292631679613" x2="3.3513978979012458" y1="-0.22901403686071606" y2="0.18312815372960436" /><line stroke="#000000" stroke-width="0.1" x1="2.01903384732538" x2="3.4613024820586644" y1="-0.6136190061229252" y2="-0.2014768155326048" /><line stroke="#000000" stroke-width="0.1" x1="3.406350189979955" x2="4.484410114369183" y1="-0.009174330901500216" y2="-1.0521445123668636" /><line stroke="#000000" stroke-width="0.1" x1="-0.5562470038758408" x2="-0.9204557142198975" y1="0.20951146938322218" y2="-1.2456009026724615" /><circle cx="-0.9204557142198975" cy="-1.2456009026724615" fill="#404040" r="0.4666666666666666" stroke="none" /><circle cx="-2.3627243489531824" cy="-1.6577430932627817" fill="#404040" r="0.4666666666666666" stroke="none" /><circle cx="-3.44078427334241" cy="-0.6147729117974181" fill="#404040" r="0.4666666666666666" stroke="none" /><circle cx="-3.076575562998353" cy="0.8403394602582654" fill="#404040" r="0.4666666666666666" stroke="none" /><circle cx="-1.6343069282650682" cy="1.2524816508485854" fill="#404040" r="0.4666666666666666" stroke="none" /><circle cx="-0.5562470038758408" cy="0.20951146938322218" fill="#404040" r="0.4666666666666666" stroke="none" /><circle cx="0.8860216308574433" cy="0.6216536599735427" fill="#404040" r="0.4666666666666666" stroke="none" /><circle cx="1.2502303412015" cy="2.0767660320292274" fill="#FF2020" r="0.39999999999999997" stroke="none" /><circle cx="1.9640815552466706" cy="-0.42131652149182064" fill="#404040" r="0.4666666666666666" stroke="none" /><circle cx="3.406350189979955" cy="-0.009174330901500216" fill="#404040" r="0.4666666666666666" stroke="none" /><circle cx="4.484410114369183" cy="-1.0521445123668636" fill="#404040" r="0.4666666666666666" stroke="none" /></svg>