<?xml version="1.0" encoding="utf-8" ?>
<svg baseProfile="full" height="100%" preserveAspectRatio="xMidYMid meet" version="1.1" viewBox="-2.9,-2.6990381056766584,5.800000000000001,5.398076211353317" width="100%" xmlns="http://www.w3.org/2000/svg" xmlns:ev="http://www.w3.org/2001/xml-events" xmlns:xlink="http://www.w3.org/1999/xlink"><defs /><line stroke="#000000" stroke-width="0.1" x1="1.6732050807568881" x2="0.923205080756887" y1="-0.10000000000000003" y2="-1.3990381056766588" /><line stroke="#000000" stroke-width="0.1" x1="1.3267949192431128" x2="0.5767949192431117" y1="0.10000000000000012" y2="-1.1990381056766586" /><line stroke="#000000" stroke-width="0.1" x1="0.7499999999999993" x2="-0.7500000000000006" y1="-1.2990381056766587" y2="-1.2990381056766578" /><line stroke="#000000" stroke-width="0.1" x1="-0.9232050807568883" x2="-1.6732050807568877" y1="-1.3990381056766577" y2="-0.09999999999999973" /><line stroke="#000000" stroke-width="0.1" x1="-0.5767949192431128" x2="-1.3267949192431123" y1="-1.199038105676658" y2="0.10000000000000017" /><line stroke="#000000" stroke-width="0.1" x1="-1.5" x2="-0.7499999999999996" y1="2.207044540262749e-16" y2="1.2990381056766582" /><line stroke="#000000" stroke-width="0.1" x1="-0.7499999999999996" x2="0.7500000000000006" y1="1.4990381056766582" y2="1.499038105676658" /><line stroke="#000000" stroke-width="0.1" x1="-0.7499999999999996" x2="0.7500000000000006" y1="1.0990381056766583" y2="1.099038105676658" /><line stroke="#000000" stroke-width="0.1" x1="0.7500000000000006" x2="1.5000000000000004" y1="1.299038105676658" y2="3.700743415417188e-17" /><circle cx="1.5000000000000004" cy="3.700743415417188e-17" fill="#404040" r="0.4666666666666666" stroke="none" /><circle cx="0.7499999999999993" cy="-1.2990381056766587" fill="#404040" r="0.4666666666666666" stroke="none" /><circle cx="-0.7500000000000006" cy="-1.2990381056766578" fill="#404040" r="0.4666666666666666" stroke="none" /><circle cx="-1.5" cy="2.207044540262749e-16" fill="#404040" r="0.4666666666666666" stroke="none" /><circle cx="-0.7499999999999996" cy="1.2990381056766582" fill="#404040" r="0.4666666666666666" stroke="none" /><circle cx="0.7500000000000006" cy="1.299038105676658" fill="#404040" r="0.4666666666666666" stroke="none" /></svg>