<?xml version="1.0" encoding="utf-8" ?>
<svg baseProfile="full" height="100%" preserveAspectRatio="xMidYMid meet" version="1.1" viewBox="-4.898479760378889,-4.207869522408098,9.677384757012463,8.412274844672865" width="100%" xmlns="http://www.w3.org/2000/svg" xmlns:ev="http://www.w3.org/2001/xml-events" xmlns:xlink="http://www.w3.org/1999/xlink"><defs /><line stroke="#000000" stroke-width="0.1" x1="3.378904996633575" x2="2.4408261758325946" y1="-1.3434049403280264" y2="-0.17293147802115238" /><line stroke="#000000" stroke-width="0.1" x1="2.4408261758325946" x2="2.83637020194901" y1="-0.17293147802115238" y2="1.2739772694137423" /><line stroke="#000000" stroke-width="0.1" x1="2.7265963198441048" x2="1.4727341532051503" y1="1.106795647195215" y2="1.9300997629820034" /><line stroke="#000000" stroke-width="0.1" x1="2.9461440840539153" x2="1.6922819174149604" y1="1.4411588916322697" y2="2.264463007419058" /><line stroke="#000000" stroke-width="0.1" x1="1.5825080353100553" x2="0.4120345730031812" y1="2.0972813852005308" y2="1.1592025643995505" /><line stroke="#000000" stroke-width="0.1" x1="0.4120345730031812" x2="-1.068293466125356" y1="1.1592025643995505" y2="1.4013366110965504" /><line stroke="#000000" stroke-width="0.1" x1="-1.068293466125356" x2="-1.5987632501288953" y1="1.4013366110965504" y2="2.804405322264767" /><line stroke="#000000" stroke-width="0.1" x1="-1.068293466125356" x2="-2.018151721250353" y1="1.4013366110965504" y2="0.24040194662533343" /><line stroke="#000000" stroke-width="0.1" x1="-2.0504362608099527" x2="-3.5307642999384887" y1="0.04302487474152866" y2="0.2851589214385278" /><line stroke="#000000" stroke-width="0.1" x1="-1.985867181690753" x2="-3.466195220819289" y1="0.4377790185091382" y2="0.6799130652061374" /><line stroke="#000000" stroke-width="0.1" x1="-2.018151721250353" x2="-1.4876819372468142" y1="0.24040194662533343" y2="-1.1626667645428828" /><line stroke="#000000" stroke-width="0.1" x1="-1.4876819372468142" x2="-2.437540192371811" y1="-1.1626667645428828" y2="-2.3236014290141003" /><line stroke="#000000" stroke-width="0.1" x1="-1.4876819372468142" x2="-0.007353898118278246" y1="-1.1626667645428828" y2="-1.4048008112398822" /><line stroke="#000000" stroke-width="0.1" x1="0.1797219300374839" x2="0.7101917140410227" y1="-1.334071506706077" y2="-2.7371402178742925" /><line stroke="#000000" stroke-width="0.1" x1="-0.1944297262740404" x2="0.3360400577294983" y1="-1.4755301157736873" y2="-2.878598826941903" /><line stroke="#000000" stroke-width="0.1" x1="-0.007353898118278246" x2="0.9425043570067188" y1="-1.4048008112398822" y2="-0.24386614676866603" /><line stroke="#000000" stroke-width="0.1" x1="0.9425043570067188" x2="2.4408261758325946" y1="-0.24386614676866603" y2="-0.17293147802115238" /><line stroke="#000000" stroke-width="0.1" x1="0.7554285288509566" x2="0.22495874484741898" y1="-0.314595451302471" y2="1.0884732598657454" /><line stroke="#000000" stroke-width="0.1" x1="1.129580185162481" x2="0.5991104011589434" y1="-0.17313684223486103" y2="1.2299318689333556" /><circle cx="3.378904996633575" cy="-1.3434049403280264" fill="#404040" r="0.4666666666666666" stroke="none" /><circle cx="2.4408261758325946" cy="-0.17293147802115238" fill="#2020FF" r="0.43333333333333335" stroke="none" /><circle cx="2.83637020194901" cy="1.2739772694137423" fill="#404040" r="0.4666666666666666" stroke="none" /><circle cx="1.5825080353100553" cy="2.0972813852005308" fill="#2020FF" r="0.43333333333333335" stroke="none" /><circle cx="0.4120345730031812" cy="1.1592025643995505" fill="#404040" r="0.4666666666666666" stroke="none" /><circle cx="-1.068293466125356" cy="1.4013366110965504" fill="#2020FF" r="0.43333333333333335" stroke="none" /><circle cx="-1.5987632501288953" cy="2.804405322264767" fill="#404040" r="0.4666666666666666" stroke="none" /><circle cx="-2.018151721250353" cy="0.24040194662533343" fill="#404040" r="0.4666666666666666" stroke="none" /><circle cx="-3.498479760378889" cy="0.48253599332233255" fill="#FF2020" r="0.39999999999999997" stroke="none" /><circle cx="-1.4876819372468142" cy="-1.1626667645428828" fill="#2020FF" r="0.43333333333333335" stroke="none" /><circle cx="-2.437540192371811" cy="-2.3236014290141003" fill="#404040" r="0.4666666666666666" stroke="none" /><circle cx="-0.007353898118278246" cy="-1.4048008112398822" fill="#404040" r="0.4666666666666666" stroke="none" /><circle cx="0.5231158858852605" cy="-2.807869522408098" fill="#FF2020" r="0.39999999999999997" stroke="none" /><circle cx="0.9425043570067188" cy="-0.24386614676866603" fill="#404040" r="0.4666666666666666" stroke="none" /></svg>