<?xml version="1.0" encoding="utf-8" ?>
<svg baseProfile="full" height="100%" preserveAspectRatio="xMidYMid meet" version="1.1" viewBox="-5.415231761832313,-3.305031029619344,10.581041221886382,6.468120534479056" width="100%" xmlns="http://www.w3.org/2000/svg" xmlns:ev="http://www.w3.org/2001/xml-events" xmlns:xlink="http://www.w3.org/1999/xlink"><defs /><line stroke="#717171" stroke-width="0.1" x1="-4.015231761832313" x2="-2.76200151959599" y1="0.5677660990385238" y2="-0.25649961051409853" /><line stroke="#717171" stroke-width="0.1" x1="-2.851761035834826" x2="-1.5113108707756884" y1="-0.07777292183954682" y2="0.5954234499517235" /><line stroke="#717171" stroke-width="0.1" x1="-2.672242003357154" x2="-1.3317918382980163" y1="-0.43522629918865025" y2="0.23797007260262" /><line stroke="#717171" stroke-width="0.1" x1="-1.4215513545368523" x2="-0.16832111230052937" y1="0.4166967612771717" y2="-0.4075689482754507" /><line stroke="#717171" stroke-width="0.1" x1="0.03134049854532295" x2="-0.05587942427749193" y1="-0.4191982713184927" y2="-1.9166603526623858" /><line stroke="#717171" stroke-width="0.1" x1="-0.3679827231463817" x2="-0.4552026459691966" y1="-0.3959396252324087" y2="-1.8934017065763018" /><line stroke="#717171" stroke-width="0.1" x1="-0.16832111230052937" x2="1.1721290527586086" y1="-0.4075689482754507" y2="0.2656274235158197" /><line stroke="#717171" stroke-width="0.1" x1="0.9724674419127562" x2="1.0596873647355705" y1="0.2772567465588616" y2="1.7747188279027548" /><line stroke="#717171" stroke-width="0.1" x1="1.371790663604461" x2="1.4590105864272753" y1="0.25399810047277777" y2="1.7514601818166708" /><line stroke="#717171" stroke-width="0.1" x1="1.1721290527586086" x2="2.4253592949949314" y1="0.2656274235158197" y2="-0.5586382860368027" /><line stroke="#717171" stroke-width="0.1" x1="2.4253592949949314" x2="3.7658094600540695" y1="-0.5586382860368027" y2="0.1145580857544678" /><circle cx="-4.015231761832313" cy="0.5677660990385238" fill="#FF2020" r="0.39999999999999997" stroke="none" /><circle cx="-2.76200151959599" cy="-0.25649961051409853" fill="#404040" r="0.4666666666666666" stroke="none" /><circle cx="-1.4215513545368523" cy="0.4166967612771717" fill="#2020FF" r="0.43333333333333335" stroke="none" /><circle cx="-0.16832111230052937" cy="-0.4075689482754507" fill="#404040" r="0.4666666666666666" stroke="none" /><circle cx="-0.25554103512334425" cy="-1.9050310296193438" fill="#FF2020" r="0.39999999999999997" stroke="none" /><circle cx="1.1721290527586086" cy="0.2656274235158197" fill="#404040" r="0.4666666666666666" stroke="none" /><circle cx="1.259348975581423" cy="1.7630895048597128" fill="#2020FF" r="0.43333333333333335" stroke="none" /><circle cx="2.4253592949949314" cy="-0.5586382860368027" fill="#404040" r="0.4666666666666666" stroke="none" /><circle cx="3.7658094600540695" cy="0.1145580857544678" fill="#2020FF" r="0.43333333333333335" stroke="none" /><circle cx="-4.581199609301726" cy="0.28352763094887634" fill="#d0d0d0" r="0.2333333333333333" stroke="#717171" stroke-width="0" /><circle cx="1.855104604496595" cy="2.0622878923225" fill="#d0d0d0" r="0.2333333333333333" stroke="#717171" stroke-width="0" /><circle cx="4.322800678825768" cy="-0.25178222960225327" fill="#d0d0d0" r="0.2333333333333333" stroke="#717171" stroke-width="0" /><circle cx="3.8045738701975425" cy="0.7800967885739755" fill="#d0d0d0" r="0.2333333333333333" stroke="#717171" stroke-width="0" /></svg>