<?xml version="1.0" encoding="utf-8" ?>
<svg baseProfile="full" height="100%" preserveAspectRatio="xMidYMid meet" version="1.1" viewBox="-4.898479760378889,-4.207869522408098,9.677384757012463,8.412274844672865" width="100%" xmlns="http://www.w3.org/2000/svg" xmlns:ev="http://www.w3.org/2001/xml-events" xmlns:xlink="http://www.w3.org/1999/xlink"><defs /><line stroke="#7f7f7f" stroke-width="0.1" x1="3.378904996633575" x2="2.4408261758325946" y1="-1.3434049403280264" y2="-0.17293147802115238" /><line stroke="#7f7f7f" stroke-width="0.1" x1="2.4408261758325946" x2="2.83637020194901" y1="-0.17293147802115238" y2="1.2739772694137423" /><line stroke="#7f7f7f" stroke-width="0.1" x1="2.7265963198441048" x2="1.4727341532051503" y1="1.106795647195215" y2="1.9300997629820034" /><line stroke="#7f7f7f" stroke-width="0.1" x1="2.9461440840539153" x2="1.6922819174149604" y1="1.4411588916322697" y2="2.264463007419058" /><line stroke="#7f7f7f" stroke-width="0.1" x1="1.5825080353100553" x2="0.4120345730031812" y1="2.0972813852005308" y2="1.1592025643995505" /><line stroke="#7f7f7f" stroke-width="0.1" x1="0.4120345730031812" x2="-1.068293466125356" y1="1.1592025643995505" y2="1.4013366110965504" /><line stroke="#7f7f7f" stroke-width="0.1" x1="-1.068293466125356" x2="-1.5987632501288953" y1="1.4013366110965504" y2="2.804405322264767" /><line stroke="#7f7f7f" stroke-width="0.1" x1="-1.068293466125356" x2="-2.018151721250353" y1="1.4013366110965504" y2="0.24040194662533343" /><line stroke="#7f7f7f" stroke-width="0.1" x1="-2.0504362608099527" x2="-3.5307642999384887" y1="0.04302487474152866" y2="0.2851589214385278" /><line stroke="#7f7f7f" stroke-width="0.1" x1="-1.985867181690753" x2="-3.466195220819289" y1="0.4377790185091382" y2="0.6799130652061374" /><line stroke="#7f7f7f" stroke-width="0.1" x1="-2.018151721250353" x2="-1.4876819372468142" y1="0.24040194662533343" y2="-1.1626667645428828" /><line stroke="#7f7f7f" stroke-width="0.1" x1="-1.4876819372468142" x2="-2.437540192371811" y1="-1.1626667645428828" y2="-2.3236014290141003" /><line stroke="#7f7f7f" stroke-width="0.1" x1="-1.4876819372468142" x2="-0.007353898118278246" y1="-1.1626667645428828" y2="-1.4048008112398822" /><line stroke="#7f7f7f" stroke-width="0.1" x1="0.1797219300374839" x2="0.7101917140410227" y1="-1.334071506706077" y2="-2.7371402178742925" /><line stroke="#7f7f7f" stroke-width="0.1" x1="-0.1944297262740404" x2="0.3360400577294983" y1="-1.4755301157736873" y2="-2.878598826941903" /><line stroke="#7f7f7f" stroke-width="0.1" x1="-0.007353898118278246" x2="0.9425043570067188" y1="-1.4048008112398822" y2="-0.24386614676866603" /><line stroke="#7f7f7f" stroke-width="0.1" x1="0.9425043570067188" x2="2.4408261758325946" y1="-0.24386614676866603" y2="-0.17293147802115238" /><line stroke="#7f7f7f" stroke-width="0.1" x1="0.7554285288509566" x2="0.22495874484741898" y1="-0.314595451302471" y2="1.0884732598657454" /><line stroke="#7f7f7f" stroke-width="0.1" x1="1.129580185162481" x2="0.5991104011589434" y1="-0.17313684223486103" y2="1.2299318689333556" /><circle cx="3.378904996633575" cy="-1.3434049403280264" fill="#ffffff" r="0.5666666666666667" stroke="#404040" stroke-width="0.1" /><text fill="#404040" font-family="Sans Seriff" font-size="0.8" x="3.0789049966335753" y="-1.0934049403280264">C</text><circle cx="2.4408261758325946" cy="-0.17293147802115238" fill="#ffffff" r="0.5333333333333333" stroke="#2020FF" stroke-width="0.1" /><text fill="#2020FF" font-family="Sans Seriff" font-size="0.8" x="2.140826175832595" y="0.07706852197884762">N</text><circle cx="2.83637020194901" cy="1.2739772694137423" fill="#ffffff" r="0.5666666666666667" stroke="#404040" stroke-width="0.1" /><text fill="#404040" font-family="Sans Seriff" font-size="0.8" x="2.53637020194901" y="1.5239772694137423">C</text><circle cx="1.5825080353100553" cy="2.0972813852005308" fill="#ffffff" r="0.5333333333333333" stroke="#2020FF" stroke-width="0.1" /><text fill="#2020FF" font-family="Sans Seriff" font-size="0.8" x="1.2825080353100553" y="2.3472813852005308">N</text><circle cx="0.4120345730031812" cy="1.1592025643995505" fill="#ffffff" r="0.5666666666666667" stroke="#404040" stroke-width="0.1" /><text fill="#404040" font-family="Sans Seriff" font-size="0.8" x="0.1120345730031812" y="1.4092025643995505">C</text><circle cx="-1.068293466125356" cy="1.4013366110965504" fill="#ffffff" r="0.5333333333333333" stroke="#2020FF" stroke-width="0.1" /><text fill="#2020FF" font-family="Sans Seriff" font-size="0.8" x="-1.368293466125356" y="1.6513366110965504">N</text><circle cx="-1.5987632501288953" cy="2.804405322264767" fill="#ffffff" r="0.5666666666666667" stroke="#404040" stroke-width="0.1" /><text fill="#404040" font-family="Sans Seriff" font-size="0.8" x="-1.8987632501288954" y="3.054405322264767">C</text><circle cx="-2.018151721250353" cy="0.24040194662533343" fill="#ffffff" r="0.5666666666666667" stroke="#404040" stroke-width="0.1" /><text fill="#404040" font-family="Sans Seriff" font-size="0.8" x="-2.3181517212503526" y="0.49040194662533343">C</text><circle cx="-3.498479760378889" cy="0.48253599332233255" fill="#ffffff" r="0.5" stroke="#FF2020" stroke-width="0.1" /><text fill="#FF2020" font-family="Sans Seriff" font-size="0.8" x="-3.7984797603788887" y="0.7325359933223325">O</text><circle cx="-1.4876819372468142" cy="-1.1626667645428828" fill="#ffffff" r="0.5333333333333333" stroke="#2020FF" stroke-width="0.1" /><text fill="#2020FF" font-family="Sans Seriff" font-size="0.8" x="-1.7876819372468142" y="-0.9126667645428828">N</text><circle cx="-2.437540192371811" cy="-2.3236014290141003" fill="#ffffff" r="0.5666666666666667" stroke="#404040" stroke-width="0.1" /><text fill="#404040" font-family="Sans Seriff" font-size="0.8" x="-2.737540192371811" y="-2.0736014290141003">C</text><circle cx="-0.007353898118278246" cy="-1.4048008112398822" fill="#ffffff" r="0.5666666666666667" stroke="#404040" stroke-width="0.1" /><text fill="#404040" font-family="Sans Seriff" font-size="0.8" x="-0.30735389811827823" y="-1.1548008112398822">C</text><circle cx="0.5231158858852605" cy="-2.807869522408098" fill="#ffffff" r="0.5" stroke="#FF2020" stroke-width="0.1" /><text fill="#FF2020" font-family="Sans Seriff" font-size="0.8" x="0.2231158858852605" y="-2.557869522408098">O</text><circle cx="0.9425043570067188" cy="-0.24386614676866603" fill="#ffffff" r="0.5666666666666667" stroke="#404040" stroke-width="0.1" /><text fill="#404040" font-family="Sans Seriff" font-size="0.8" x="0.6425043570067188" y="0.006133853231333974">C</text></svg>